<?xml version="1.0" encoding="utf-8"?>
<!-- Generator: Adobe Illustrator 24.3.0, SVG Export Plug-In . SVG Version: 6.00 Build 0)  -->
<svg version="1.1" id="图层_1" xmlns="http://www.w3.org/2000/svg" xmlns:xlink="http://www.w3.org/1999/xlink" x="0px" y="0px"
	 viewBox="0 0 16 16" style="enable-background:new 0 0 16 16;" xml:space="preserve">
<style type="text/css">
	.st0{fill:#fbe993;}
</style>
<path class="st0" d="M15.5,7.5c0-0.3,0-0.6-0.1-0.9h-0.2h-1.7h-2.1c-0.1-1.5-0.4-2.9-0.8-4c0.9,0.5,1.7,1.2,2.2,2.1H15
	C13.8,1.9,11.1,0,8,0C3.8,0,0.5,3.4,0.5,7.5c0,0.3,0,0.6,0.1,0.9h0.2h1.7h2.1c0.1,1.5,0.4,2.9,0.8,4c-0.9-0.5-1.7-1.2-2.3-2.1H1
	C2.1,13.1,4.8,15,8,15c0,0,0,0,0,0c0,0,0,0,0,0c0,0,0,0,0,0C12.2,15,15.5,11.6,15.5,7.5z M8,1.9c0.4,0.3,1.4,1.9,1.6,4.6H6.4
	C6.6,3.8,7.6,2.2,8,1.9z M5.4,2.6C4.9,3.7,4.6,5,4.5,6.6H2.5C2.8,4.8,3.9,3.4,5.4,2.6z M9.6,8.4c-0.2,2.8-1.1,4.4-1.6,4.6
	c-0.4-0.3-1.4-1.9-1.6-4.6H9.6z M10.6,12.4c0.4-1.1,0.7-2.5,0.8-4h2C13.2,10.2,12.1,11.6,10.6,12.4z"/>
</svg>
